# xmcd CD database file
#
# Track frame offsets:
#	150
#	26690
#	49403
#	73769
#	94119
#	112590
#	132624
#	153160
#	179140
#	201548
#	226806
#	248056
#	271219
#	292107
#	318425
#
# Disc length: 4516 seconds
#
# Revision: 3
# Processed by: cddbd v1.5.1PL2 Copyright (c) Steve Scherf et al.
# Submitted via: CDex 1.51
#
DISCID=e011a20f
DTITLE=Mr.Children - 1992-1995
DYEAR=1900
DGENRE=JPop
TTITLE0=君がいた夏
TTITLE1=星になれたら
TTITLE2=抱きしめたい
TTITLE3=Replay
TTITLE4=LOVE
TTITLE5=my life
TTITLE6=CROSS ROAD
TTITLE7=innocent world
TTITLE8=Dance Dance Dance
TTITLE9=雨のち晴れ
TTITLE10=Over
TTITLE11=Tomorrow never knows
TTITLE12=everybody goes〜秩序のない現代にドロップキック〜
TTITLE13=【es】〜Theme of es〜
TTITLE14=シーソーゲーム〜勇敢な恋の歌〜
EXTD=
EXTT0=
EXTT1=
EXTT2=
EXTT3=
EXTT4=
EXTT5=
EXTT6=
EXTT7=
EXTT8=
EXTT9=
EXTT10=
EXTT11=
EXTT12=
EXTT13=
EXTT14=
PLAYORDER=
